<svg xmlns="http://www.w3.org/2000/svg" viewBox="0 0 43.91 45.56"><g id="Layer_2" data-name="Layer 2"><g id="Layer_1-2" data-name="Layer 1"><rect width="43.91" height="43.91" rx="5.96" style="fill:#393b6b"/><path d="M8.88,20h4.78V40.52h7v4.56H8.88Z" style="fill:#fff"/><path d="M35.14,29.09,32.26,32a4.88,4.88,0,0,0-3.2-1.75,2,2,0,0,0-1.23.34,1,1,0,0,0-.44.83,1,1,0,0,0,.28.69,5.19,5.19,0,0,0,1.39.86l1.71.86a10,10,0,0,1,3.71,2.71,5.67,5.67,0,0,1-.81,7.39,7,7,0,0,1-4.88,1.65,7.77,7.77,0,0,1-6.5-3.18l2.87-3.12a6.53,6.53,0,0,0,1.93,1.54,4.14,4.14,0,0,0,1.95.59A2.32,2.32,0,0,0,30.53,41a1.28,1.28,0,0,0,.56-1c0-.71-.67-1.41-2-2.1L27.49,37Q23,34.76,23,31.34a4.91,4.91,0,0,1,1.7-3.76A6.13,6.13,0,0,1,29,26a7.54,7.54,0,0,1,6.11,3.08Z" style="fill:#fff"/></g></g></svg>